G04 #@! TF.GenerationSoftware,KiCad,Pcbnew,5.1.4+dfsg1-1*
G04 #@! TF.CreationDate,2019-12-01T21:22:26+08:00*
G04 #@! TF.ProjectId,octolight,6f63746f-6c69-4676-9874-2e6b69636164,rev?*
G04 #@! TF.SameCoordinates,Original*
G04 #@! TF.FileFunction,Copper,L2,Bot*
G04 #@! TF.FilePolarity,Positive*
%FSLAX46Y46*%
G04 Gerber Fmt 4.6, Leading zero omitted, Abs format (unit mm)*
G04 Created by KiCad (PCBNEW 5.1.4+dfsg1-1) date 2019-12-01 21:22:26*
%MOMM*%
%LPD*%
G04 APERTURE LIST*
%ADD10R,2.100000X2.100000*%
%ADD11C,2.100000*%
%ADD12O,1.700000X1.700000*%
%ADD13R,1.700000X1.700000*%
%ADD14C,0.800000*%
%ADD15C,0.250000*%
%ADD16C,0.500000*%
%ADD17C,0.254000*%
G04 APERTURE END LIST*
D10*
X126000000Y-101500000D03*
D11*
X128540000Y-101500000D03*
X135790000Y-101500000D03*
D10*
X133250000Y-101500000D03*
X135790000Y-92500000D03*
D11*
X133250000Y-92500000D03*
D12*
X124250000Y-86500000D03*
X126790000Y-86500000D03*
X129330000Y-86500000D03*
X131870000Y-86500000D03*
X134410000Y-86500000D03*
X136950000Y-86500000D03*
X139490000Y-86500000D03*
X142030000Y-86500000D03*
X144570000Y-86500000D03*
X147110000Y-86500000D03*
X149650000Y-86500000D03*
X152190000Y-86500000D03*
X154730000Y-86500000D03*
D13*
X157270000Y-86500000D03*
X124250000Y-107500000D03*
D12*
X126790000Y-107500000D03*
X129330000Y-107500000D03*
X131870000Y-107500000D03*
X134410000Y-107500000D03*
X136950000Y-107500000D03*
X139490000Y-107500000D03*
X142030000Y-107500000D03*
X144570000Y-107500000D03*
X147110000Y-107500000D03*
X149650000Y-107500000D03*
X152190000Y-107500000D03*
X154730000Y-107500000D03*
X157270000Y-107500000D03*
D11*
X125960000Y-92500000D03*
D10*
X128500000Y-92500000D03*
D14*
X148750000Y-104250000D03*
X148750000Y-100250000D03*
X139000000Y-95750000D03*
X139000000Y-91750000D03*
X148750000Y-95750000D03*
X148750000Y-91750000D03*
X139000000Y-100250000D03*
X139000000Y-104250000D03*
X148750000Y-89750000D03*
X148775000Y-93750000D03*
X139000000Y-89750000D03*
X148750000Y-98250000D03*
X139000000Y-98199989D03*
X139000000Y-93750000D03*
X139000000Y-102250000D03*
X148750000Y-102250000D03*
X152500000Y-93525000D03*
X155000000Y-93525000D03*
X152750000Y-102000000D03*
X155250000Y-102000000D03*
X143000000Y-102000000D03*
X145500000Y-102000000D03*
X143000000Y-93500000D03*
X145500000Y-93525000D03*
X161750000Y-102750000D03*
X161750000Y-93750000D03*
X161750000Y-98250000D03*
X161750000Y-89250000D03*
D15*
X123400001Y-102382123D02*
X123400001Y-87349999D01*
X125267857Y-104249979D02*
X123400001Y-102382123D01*
X125749979Y-104249979D02*
X125267857Y-104249979D01*
X125749979Y-104249979D02*
X125500021Y-104249979D01*
X123400001Y-87349999D02*
X124250000Y-86500000D01*
X137000021Y-104249979D02*
X125749979Y-104249979D01*
X137724989Y-100378009D02*
X138176499Y-99926499D01*
X137724989Y-103525011D02*
X137724989Y-100378009D01*
X137000021Y-104249979D02*
X137724989Y-103525011D01*
X138176499Y-99926499D02*
X138000000Y-100102998D01*
X138627999Y-99474999D02*
X138176499Y-99926499D01*
X147750000Y-101852998D02*
X145372001Y-99474999D01*
X148250000Y-104250000D02*
X147750000Y-103750000D01*
X148750000Y-104250000D02*
X148250000Y-104250000D01*
X147750000Y-103750000D02*
X147750000Y-101852998D01*
X145372001Y-99474999D02*
X138627999Y-99474999D01*
X125750031Y-103749969D02*
X125474967Y-103749969D01*
X123900011Y-102150011D02*
X123900011Y-89389989D01*
X123900011Y-89389989D02*
X126790000Y-86500000D01*
X125750031Y-103749969D02*
X125499969Y-103749969D01*
X125499969Y-103749969D02*
X123900011Y-102150011D01*
X137224979Y-100170899D02*
X137697939Y-99697939D01*
X137697939Y-99697939D02*
X137499990Y-99895888D01*
X125750031Y-103749969D02*
X136792911Y-103749969D01*
X136792911Y-103749969D02*
X137224979Y-103317901D01*
X137224979Y-103317901D02*
X137224979Y-100170899D01*
X147974989Y-98974989D02*
X138420889Y-98974989D01*
X148750000Y-100250000D02*
X148750000Y-99750000D01*
X138420889Y-98974989D02*
X137697939Y-99697939D01*
X148750000Y-99750000D02*
X147974989Y-98974989D01*
X139000000Y-95750000D02*
X137500000Y-94250000D01*
X132055031Y-89225031D02*
X129330000Y-86500000D01*
X136725031Y-89225031D02*
X132055031Y-89225031D01*
X137500000Y-90000000D02*
X136725031Y-89225031D01*
X137500000Y-94250000D02*
X137500000Y-90000000D01*
X134095021Y-88725021D02*
X131870000Y-86500000D01*
X139000000Y-91750000D02*
X138000000Y-90750000D01*
X138000000Y-90750000D02*
X138000000Y-89500000D01*
X138000000Y-89500000D02*
X137225021Y-88725021D01*
X137225021Y-88725021D02*
X134095021Y-88725021D01*
X136135011Y-88225011D02*
X134410000Y-86500000D01*
X148750000Y-95750000D02*
X148500000Y-95750000D01*
X148750000Y-95750000D02*
X148000000Y-95000000D01*
X148000000Y-92147002D02*
X147974999Y-92122001D01*
X148000000Y-95000000D02*
X148000000Y-92147002D01*
X147974999Y-91724999D02*
X144475011Y-88225011D01*
X147974999Y-92122001D02*
X147974999Y-91724999D01*
X143975011Y-88225011D02*
X143774989Y-88225011D01*
X144475011Y-88225011D02*
X143774989Y-88225011D01*
X143774989Y-88225011D02*
X136135011Y-88225011D01*
X138175001Y-87725001D02*
X136950000Y-86500000D01*
X145475001Y-87725001D02*
X138175001Y-87725001D01*
X148750000Y-91750000D02*
X148750000Y-91000000D01*
X148750000Y-91000000D02*
X145475001Y-87725001D01*
X124250000Y-106400000D02*
X124250000Y-107500000D01*
X125900011Y-104749989D02*
X124250000Y-106400000D01*
X139000000Y-100250000D02*
X138224999Y-101025001D01*
X137353009Y-104749989D02*
X136250011Y-104749989D01*
X136425021Y-104749989D02*
X136250011Y-104749989D01*
X136250011Y-104749989D02*
X125900011Y-104749989D01*
X138224999Y-103877999D02*
X138224999Y-101025001D01*
X137353009Y-104749989D02*
X138224999Y-103877999D01*
X126790000Y-107459999D02*
X126790000Y-107500000D01*
X129040001Y-105249999D02*
X126790000Y-107500000D01*
X138000001Y-105249999D02*
X129040001Y-105249999D01*
X139000000Y-104250000D02*
X138000001Y-105249999D01*
D16*
X148460001Y-106851999D02*
X143858002Y-102250000D01*
X158620001Y-92237001D02*
X158620001Y-85249999D01*
X139000000Y-93750000D02*
X141900001Y-96650001D01*
X158620001Y-85249999D02*
X158520001Y-85149999D01*
X158520001Y-85149999D02*
X123601999Y-85149999D01*
X122999999Y-108850001D02*
X147758001Y-108850001D01*
X148460001Y-108148001D02*
X148460001Y-106851999D01*
X141900001Y-96650001D02*
X154207001Y-96650001D01*
X123601999Y-85149999D02*
X122774991Y-85977007D01*
X122774991Y-85977007D02*
X122774991Y-108624993D01*
X147758001Y-108850001D02*
X148460001Y-108148001D01*
X122774991Y-108624993D02*
X122999999Y-108850001D01*
X161750000Y-93750000D02*
X161750000Y-98250000D01*
X161750000Y-102750000D02*
X161750000Y-98250000D01*
X161750000Y-93750000D02*
X161750000Y-89250000D01*
D17*
G36*
X177687351Y-85196243D02*
G01*
X177800928Y-85230534D01*
X179020070Y-86449676D01*
X179051362Y-86550765D01*
X179090001Y-86918391D01*
X179090000Y-107067720D01*
X179053757Y-107437353D01*
X179019467Y-107550927D01*
X177800324Y-108770070D01*
X177699236Y-108801362D01*
X177331618Y-108840000D01*
X157913248Y-108840000D01*
X158099014Y-108740706D01*
X158325134Y-108555134D01*
X158510706Y-108329014D01*
X158648599Y-108071034D01*
X158733513Y-107791111D01*
X158762185Y-107500000D01*
X158733513Y-107208889D01*
X158648599Y-106928966D01*
X158510706Y-106670986D01*
X158325134Y-106444866D01*
X158099014Y-106259294D01*
X157841034Y-106121401D01*
X157561111Y-106036487D01*
X157342950Y-106015000D01*
X157197050Y-106015000D01*
X156978889Y-106036487D01*
X156698966Y-106121401D01*
X156440986Y-106259294D01*
X156214866Y-106444866D01*
X156029294Y-106670986D01*
X156000000Y-106725791D01*
X155970706Y-106670986D01*
X155785134Y-106444866D01*
X155559014Y-106259294D01*
X155301034Y-106121401D01*
X155021111Y-106036487D01*
X154802950Y-106015000D01*
X154657050Y-106015000D01*
X154438889Y-106036487D01*
X154158966Y-106121401D01*
X153900986Y-106259294D01*
X153674866Y-106444866D01*
X153489294Y-106670986D01*
X153460000Y-106725791D01*
X153430706Y-106670986D01*
X153245134Y-106444866D01*
X153019014Y-106259294D01*
X152761034Y-106121401D01*
X152481111Y-106036487D01*
X152262950Y-106015000D01*
X152117050Y-106015000D01*
X151898889Y-106036487D01*
X151618966Y-106121401D01*
X151360986Y-106259294D01*
X151134866Y-106444866D01*
X150949294Y-106670986D01*
X150914799Y-106735523D01*
X150845178Y-106618645D01*
X150650269Y-106402412D01*
X150416920Y-106228359D01*
X150154099Y-106103175D01*
X150006890Y-106058524D01*
X149777000Y-106179845D01*
X149777000Y-107373000D01*
X149797000Y-107373000D01*
X149797000Y-107627000D01*
X149777000Y-107627000D01*
X149777000Y-107647000D01*
X149523000Y-107647000D01*
X149523000Y-107627000D01*
X149503000Y-107627000D01*
X149503000Y-107373000D01*
X149523000Y-107373000D01*
X149523000Y-106179845D01*
X149293110Y-106058524D01*
X149145901Y-106103175D01*
X148883080Y-106228359D01*
X148649731Y-106402412D01*
X148454822Y-106618645D01*
X148385201Y-106735523D01*
X148350706Y-106670986D01*
X148165134Y-106444866D01*
X147939014Y-106259294D01*
X147681034Y-106121401D01*
X147401111Y-106036487D01*
X147182950Y-106015000D01*
X147037050Y-106015000D01*
X146818889Y-106036487D01*
X146538966Y-106121401D01*
X146280986Y-106259294D01*
X146054866Y-106444866D01*
X145869294Y-106670986D01*
X145840000Y-106725791D01*
X145810706Y-106670986D01*
X145625134Y-106444866D01*
X145399014Y-106259294D01*
X145141034Y-106121401D01*
X144861111Y-106036487D01*
X144642950Y-106015000D01*
X144497050Y-106015000D01*
X144278889Y-106036487D01*
X143998966Y-106121401D01*
X143740986Y-106259294D01*
X143514866Y-106444866D01*
X143329294Y-106670986D01*
X143300000Y-106725791D01*
X143270706Y-106670986D01*
X143085134Y-106444866D01*
X142859014Y-106259294D01*
X142601034Y-106121401D01*
X142321111Y-106036487D01*
X142102950Y-106015000D01*
X141957050Y-106015000D01*
X141738889Y-106036487D01*
X141458966Y-106121401D01*
X141200986Y-106259294D01*
X140974866Y-106444866D01*
X140789294Y-106670986D01*
X140760000Y-106725791D01*
X140730706Y-106670986D01*
X140545134Y-106444866D01*
X140319014Y-106259294D01*
X140061034Y-106121401D01*
X139781111Y-106036487D01*
X139562950Y-106015000D01*
X139417050Y-106015000D01*
X139198889Y-106036487D01*
X138918966Y-106121401D01*
X138660986Y-106259294D01*
X138434866Y-106444866D01*
X138249294Y-106670986D01*
X138220000Y-106725791D01*
X138190706Y-106670986D01*
X138005134Y-106444866D01*
X137779014Y-106259294D01*
X137521034Y-106121401D01*
X137241111Y-106036487D01*
X137022950Y-106015000D01*
X136877050Y-106015000D01*
X136658889Y-106036487D01*
X136378966Y-106121401D01*
X136120986Y-106259294D01*
X135894866Y-106444866D01*
X135709294Y-106670986D01*
X135680000Y-106725791D01*
X135650706Y-106670986D01*
X135465134Y-106444866D01*
X135239014Y-106259294D01*
X134981034Y-106121401D01*
X134701111Y-106036487D01*
X134482950Y-106015000D01*
X134337050Y-106015000D01*
X134118889Y-106036487D01*
X133838966Y-106121401D01*
X133580986Y-106259294D01*
X133354866Y-106444866D01*
X133169294Y-106670986D01*
X133140000Y-106725791D01*
X133110706Y-106670986D01*
X132925134Y-106444866D01*
X132699014Y-106259294D01*
X132441034Y-106121401D01*
X132161111Y-106036487D01*
X131942950Y-106015000D01*
X131797050Y-106015000D01*
X131578889Y-106036487D01*
X131298966Y-106121401D01*
X131040986Y-106259294D01*
X130814866Y-106444866D01*
X130629294Y-106670986D01*
X130600000Y-106725791D01*
X130570706Y-106670986D01*
X130385134Y-106444866D01*
X130159014Y-106259294D01*
X129901034Y-106121401D01*
X129621111Y-106036487D01*
X129402950Y-106015000D01*
X129349802Y-106015000D01*
X129354803Y-106009999D01*
X137962679Y-106009999D01*
X138000001Y-106013675D01*
X138037323Y-106009999D01*
X138037334Y-106009999D01*
X138148987Y-105999002D01*
X138292248Y-105955545D01*
X138424277Y-105884973D01*
X138540002Y-105790000D01*
X138563805Y-105760997D01*
X139039802Y-105285000D01*
X139101939Y-105285000D01*
X139301898Y-105245226D01*
X139490256Y-105167205D01*
X139659774Y-105053937D01*
X139803937Y-104909774D01*
X139917205Y-104740256D01*
X139995226Y-104551898D01*
X140035000Y-104351939D01*
X140035000Y-104148061D01*
X139995226Y-103948102D01*
X139917205Y-103759744D01*
X139803937Y-103590226D01*
X139659774Y-103446063D01*
X139490256Y-103332795D01*
X139301898Y-103254774D01*
X139101939Y-103215000D01*
X138984999Y-103215000D01*
X138984999Y-101339802D01*
X139039801Y-101285000D01*
X139101939Y-101285000D01*
X139301898Y-101245226D01*
X139490256Y-101167205D01*
X139659774Y-101053937D01*
X139803937Y-100909774D01*
X139917205Y-100740256D01*
X139995226Y-100551898D01*
X140035000Y-100351939D01*
X140035000Y-100234999D01*
X145057200Y-100234999D01*
X146990001Y-102167802D01*
X146990000Y-103712677D01*
X146986324Y-103750000D01*
X146990000Y-103787322D01*
X146990000Y-103787332D01*
X147000997Y-103898985D01*
X147039825Y-104026985D01*
X147044454Y-104042246D01*
X147115026Y-104174276D01*
X147154871Y-104222826D01*
X147209999Y-104290001D01*
X147239003Y-104313804D01*
X147686196Y-104760997D01*
X147709999Y-104790001D01*
X147825724Y-104884974D01*
X147957753Y-104955546D01*
X148006675Y-104970386D01*
X148090226Y-105053937D01*
X148259744Y-105167205D01*
X148448102Y-105245226D01*
X148648061Y-105285000D01*
X148851939Y-105285000D01*
X149051898Y-105245226D01*
X149240256Y-105167205D01*
X149409774Y-105053937D01*
X149553937Y-104909774D01*
X149667205Y-104740256D01*
X149745226Y-104551898D01*
X149785000Y-104351939D01*
X149785000Y-104148061D01*
X149745226Y-103948102D01*
X149667205Y-103759744D01*
X149553937Y-103590226D01*
X149409774Y-103446063D01*
X149240256Y-103332795D01*
X149051898Y-103254774D01*
X148851939Y-103215000D01*
X148648061Y-103215000D01*
X148510000Y-103242462D01*
X148510000Y-101890320D01*
X148513676Y-101852997D01*
X148510000Y-101815674D01*
X148510000Y-101815665D01*
X148499003Y-101704012D01*
X148455546Y-101560751D01*
X148384974Y-101428722D01*
X148350188Y-101386335D01*
X148313799Y-101341994D01*
X148313795Y-101341990D01*
X148290001Y-101312997D01*
X148261008Y-101289203D01*
X146706793Y-99734989D01*
X147660188Y-99734989D01*
X147789490Y-99864291D01*
X147754774Y-99948102D01*
X147715000Y-100148061D01*
X147715000Y-100351939D01*
X147754774Y-100551898D01*
X147832795Y-100740256D01*
X147946063Y-100909774D01*
X148090226Y-101053937D01*
X148259744Y-101167205D01*
X148448102Y-101245226D01*
X148648061Y-101285000D01*
X148851939Y-101285000D01*
X149051898Y-101245226D01*
X149240256Y-101167205D01*
X149409774Y-101053937D01*
X149553937Y-100909774D01*
X149667205Y-100740256D01*
X149745226Y-100551898D01*
X149785000Y-100351939D01*
X149785000Y-100148061D01*
X149745226Y-99948102D01*
X149667205Y-99759744D01*
X149553937Y-99590226D01*
X149470386Y-99506675D01*
X149455546Y-99457753D01*
X149384974Y-99325723D01*
X149313799Y-99238997D01*
X149290001Y-99209999D01*
X149261002Y-99186201D01*
X148538792Y-98463991D01*
X148514990Y-98434988D01*
X148399265Y-98340015D01*
X148267236Y-98269443D01*
X148123975Y-98225986D01*
X148012322Y-98214989D01*
X148012311Y-98214989D01*
X147974989Y-98211313D01*
X147937667Y-98214989D01*
X138458214Y-98214989D01*
X138420889Y-98211313D01*
X138383564Y-98214989D01*
X138383556Y-98214989D01*
X138271903Y-98225986D01*
X138128642Y-98269443D01*
X137996613Y-98340015D01*
X137880888Y-98434988D01*
X137857090Y-98463987D01*
X137186941Y-99134136D01*
X137186936Y-99134140D01*
X136713977Y-99607100D01*
X136684979Y-99630898D01*
X136661181Y-99659896D01*
X136661180Y-99659897D01*
X136590005Y-99746623D01*
X136519433Y-99878653D01*
X136498367Y-99948102D01*
X136492578Y-99967186D01*
X136281496Y-99879754D01*
X135955958Y-99815000D01*
X135624042Y-99815000D01*
X135298504Y-99879754D01*
X134991853Y-100006772D01*
X134838042Y-100109546D01*
X134830537Y-100095506D01*
X134751185Y-99998815D01*
X134654494Y-99919463D01*
X134544180Y-99860498D01*
X134424482Y-99824188D01*
X134300000Y-99811928D01*
X132200000Y-99811928D01*
X132075518Y-99824188D01*
X131955820Y-99860498D01*
X131845506Y-99919463D01*
X131748815Y-99998815D01*
X131669463Y-100095506D01*
X131610498Y-100205820D01*
X131574188Y-100325518D01*
X131561928Y-100450000D01*
X131561928Y-102550000D01*
X131574188Y-102674482D01*
X131610498Y-102794180D01*
X131669463Y-102904494D01*
X131739610Y-102989969D01*
X129343024Y-102989969D01*
X129614125Y-102808825D01*
X129848825Y-102574125D01*
X130033228Y-102298147D01*
X130160246Y-101991496D01*
X130225000Y-101665958D01*
X130225000Y-101334042D01*
X130160246Y-101008504D01*
X130033228Y-100701853D01*
X129848825Y-100425875D01*
X129614125Y-100191175D01*
X129338147Y-100006772D01*
X129031496Y-99879754D01*
X128705958Y-99815000D01*
X128374042Y-99815000D01*
X128048504Y-99879754D01*
X127741853Y-100006772D01*
X127588042Y-100109546D01*
X127580537Y-100095506D01*
X127501185Y-99998815D01*
X127404494Y-99919463D01*
X127294180Y-99860498D01*
X127174482Y-99824188D01*
X127050000Y-99811928D01*
X124950000Y-99811928D01*
X124825518Y-99824188D01*
X124705820Y-99860498D01*
X124660011Y-99884984D01*
X124660011Y-93582961D01*
X124885875Y-93808825D01*
X125161853Y-93993228D01*
X125468504Y-94120246D01*
X125794042Y-94185000D01*
X126125958Y-94185000D01*
X126451496Y-94120246D01*
X126758147Y-93993228D01*
X126911958Y-93890454D01*
X126919463Y-93904494D01*
X126998815Y-94001185D01*
X127095506Y-94080537D01*
X127205820Y-94139502D01*
X127325518Y-94175812D01*
X127450000Y-94188072D01*
X129550000Y-94188072D01*
X129674482Y-94175812D01*
X129794180Y-94139502D01*
X129904494Y-94080537D01*
X130001185Y-94001185D01*
X130080537Y-93904494D01*
X130139502Y-93794180D01*
X130175812Y-93674482D01*
X130188072Y-93550000D01*
X130188072Y-91450000D01*
X130175812Y-91325518D01*
X130139502Y-91205820D01*
X130080537Y-91095506D01*
X130001185Y-90998815D01*
X129904494Y-90919463D01*
X129794180Y-90860498D01*
X129674482Y-90824188D01*
X129550000Y-90811928D01*
X127450000Y-90811928D01*
X127325518Y-90824188D01*
X127205820Y-90860498D01*
X127095506Y-90919463D01*
X126998815Y-90998815D01*
X126919463Y-91095506D01*
X126911958Y-91109546D01*
X126758147Y-91006772D01*
X126451496Y-90879754D01*
X126125958Y-90815000D01*
X125794042Y-90815000D01*
X125468504Y-90879754D01*
X125161853Y-91006772D01*
X124885875Y-91191175D01*
X124660011Y-91417039D01*
X124660011Y-89704790D01*
X126424005Y-87940797D01*
X126498889Y-87963513D01*
X126717050Y-87985000D01*
X126862950Y-87985000D01*
X127081111Y-87963513D01*
X127361034Y-87878599D01*
X127619014Y-87740706D01*
X127845134Y-87555134D01*
X128030706Y-87329014D01*
X128060000Y-87274209D01*
X128089294Y-87329014D01*
X128274866Y-87555134D01*
X128500986Y-87740706D01*
X128758966Y-87878599D01*
X129038889Y-87963513D01*
X129257050Y-87985000D01*
X129402950Y-87985000D01*
X129621111Y-87963513D01*
X129695996Y-87940797D01*
X131491231Y-89736033D01*
X131515030Y-89765032D01*
X131630755Y-89860005D01*
X131762784Y-89930577D01*
X131906045Y-89974034D01*
X132017698Y-89985031D01*
X132017706Y-89985031D01*
X132055031Y-89988707D01*
X132092356Y-89985031D01*
X136410230Y-89985031D01*
X136740001Y-90314803D01*
X136740001Y-90811928D01*
X134740000Y-90811928D01*
X134615518Y-90824188D01*
X134495820Y-90860498D01*
X134385506Y-90919463D01*
X134288815Y-90998815D01*
X134209463Y-91095506D01*
X134201958Y-91109546D01*
X134048147Y-91006772D01*
X133741496Y-90879754D01*
X133415958Y-90815000D01*
X133084042Y-90815000D01*
X132758504Y-90879754D01*
X132451853Y-91006772D01*
X132175875Y-91191175D01*
X131941175Y-91425875D01*
X131756772Y-91701853D01*
X131629754Y-92008504D01*
X131565000Y-92334042D01*
X131565000Y-92665958D01*
X131629754Y-92991496D01*
X131756772Y-93298147D01*
X131941175Y-93574125D01*
X132175875Y-93808825D01*
X132451853Y-93993228D01*
X132758504Y-94120246D01*
X133084042Y-94185000D01*
X133415958Y-94185000D01*
X133741496Y-94120246D01*
X134048147Y-93993228D01*
X134201958Y-93890454D01*
X134209463Y-93904494D01*
X134288815Y-94001185D01*
X134385506Y-94080537D01*
X134495820Y-94139502D01*
X134615518Y-94175812D01*
X134740000Y-94188072D01*
X136740000Y-94188072D01*
X136740000Y-94212677D01*
X136736324Y-94250000D01*
X136740000Y-94287322D01*
X136740000Y-94287332D01*
X136750997Y-94398985D01*
X136778427Y-94489411D01*
X136794454Y-94542246D01*
X136865026Y-94674276D01*
X136892501Y-94707754D01*
X136959999Y-94790001D01*
X136989003Y-94813804D01*
X137965000Y-95789802D01*
X137965000Y-95851939D01*
X138004774Y-96051898D01*
X138082795Y-96240256D01*
X138196063Y-96409774D01*
X138340226Y-96553937D01*
X138509744Y-96667205D01*
X138698102Y-96745226D01*
X138898061Y-96785000D01*
X139101939Y-96785000D01*
X139301898Y-96745226D01*
X139490256Y-96667205D01*
X139659774Y-96553937D01*
X139803937Y-96409774D01*
X139917205Y-96240256D01*
X139995226Y-96051898D01*
X140035000Y-95851939D01*
X140035000Y-95648061D01*
X139995226Y-95448102D01*
X139917205Y-95259744D01*
X139803937Y-95090226D01*
X139659774Y-94946063D01*
X139490256Y-94832795D01*
X139301898Y-94754774D01*
X139101939Y-94715000D01*
X139039802Y-94715000D01*
X138260000Y-93935199D01*
X138260000Y-92473711D01*
X138340226Y-92553937D01*
X138509744Y-92667205D01*
X138698102Y-92745226D01*
X138898061Y-92785000D01*
X139101939Y-92785000D01*
X139301898Y-92745226D01*
X139490256Y-92667205D01*
X139659774Y-92553937D01*
X139803937Y-92409774D01*
X139917205Y-92240256D01*
X139995226Y-92051898D01*
X140035000Y-91851939D01*
X140035000Y-91648061D01*
X139995226Y-91448102D01*
X139917205Y-91259744D01*
X139803937Y-91090226D01*
X139659774Y-90946063D01*
X139490256Y-90832795D01*
X139301898Y-90754774D01*
X139101939Y-90715000D01*
X139039802Y-90715000D01*
X138760000Y-90435199D01*
X138760000Y-89537323D01*
X138763676Y-89500000D01*
X138760000Y-89462677D01*
X138760000Y-89462667D01*
X138749003Y-89351014D01*
X138705546Y-89207753D01*
X138634974Y-89075724D01*
X138560528Y-88985011D01*
X144160210Y-88985011D01*
X147214999Y-92039802D01*
X147214999Y-92084679D01*
X147211323Y-92122001D01*
X147214999Y-92159323D01*
X147214999Y-92159333D01*
X147225996Y-92270986D01*
X147240001Y-92317155D01*
X147240000Y-94962677D01*
X147236324Y-95000000D01*
X147240000Y-95037322D01*
X147240000Y-95037332D01*
X147250997Y-95148985D01*
X147284595Y-95259744D01*
X147294454Y-95292246D01*
X147365026Y-95424276D01*
X147384580Y-95448102D01*
X147459999Y-95540001D01*
X147489002Y-95563803D01*
X147715000Y-95789801D01*
X147715000Y-95851939D01*
X147754774Y-96051898D01*
X147832795Y-96240256D01*
X147946063Y-96409774D01*
X148090226Y-96553937D01*
X148259744Y-96667205D01*
X148448102Y-96745226D01*
X148648061Y-96785000D01*
X148851939Y-96785000D01*
X149051898Y-96745226D01*
X149240256Y-96667205D01*
X149409774Y-96553937D01*
X149553937Y-96409774D01*
X149667205Y-96240256D01*
X149745226Y-96051898D01*
X149785000Y-95851939D01*
X149785000Y-95648061D01*
X149745226Y-95448102D01*
X149667205Y-95259744D01*
X149553937Y-95090226D01*
X149409774Y-94946063D01*
X149240256Y-94832795D01*
X149051898Y-94754774D01*
X148851939Y-94715000D01*
X148789801Y-94715000D01*
X148760000Y-94685199D01*
X148760000Y-92785000D01*
X148851939Y-92785000D01*
X149051898Y-92745226D01*
X149240256Y-92667205D01*
X149409774Y-92553937D01*
X149553937Y-92409774D01*
X149667205Y-92240256D01*
X149745226Y-92051898D01*
X149785000Y-91851939D01*
X149785000Y-91648061D01*
X149745226Y-91448102D01*
X149667205Y-91259744D01*
X149553937Y-91090226D01*
X149510000Y-91046289D01*
X149510000Y-91037322D01*
X149513676Y-90999999D01*
X149510000Y-90962677D01*
X149510000Y-90962667D01*
X149499003Y-90851014D01*
X149455546Y-90707753D01*
X149454366Y-90705546D01*
X149384974Y-90575723D01*
X149313799Y-90488997D01*
X149290001Y-90459999D01*
X149261003Y-90436201D01*
X147972863Y-89148061D01*
X160715000Y-89148061D01*
X160715000Y-89351939D01*
X160754774Y-89551898D01*
X160832795Y-89740256D01*
X160865001Y-89788456D01*
X160865000Y-93211545D01*
X160832795Y-93259744D01*
X160754774Y-93448102D01*
X160715000Y-93648061D01*
X160715000Y-93851939D01*
X160754774Y-94051898D01*
X160832795Y-94240256D01*
X160865000Y-94288455D01*
X160865001Y-97711544D01*
X160832795Y-97759744D01*
X160754774Y-97948102D01*
X160715000Y-98148061D01*
X160715000Y-98351939D01*
X160754774Y-98551898D01*
X160832795Y-98740256D01*
X160865001Y-98788456D01*
X160865000Y-102211545D01*
X160832795Y-102259744D01*
X160754774Y-102448102D01*
X160715000Y-102648061D01*
X160715000Y-102851939D01*
X160754774Y-103051898D01*
X160832795Y-103240256D01*
X160946063Y-103409774D01*
X161090226Y-103553937D01*
X161259744Y-103667205D01*
X161448102Y-103745226D01*
X161648061Y-103785000D01*
X161851939Y-103785000D01*
X162051898Y-103745226D01*
X162240256Y-103667205D01*
X162409774Y-103553937D01*
X162553937Y-103409774D01*
X162667205Y-103240256D01*
X162745226Y-103051898D01*
X162785000Y-102851939D01*
X162785000Y-102648061D01*
X162745226Y-102448102D01*
X162667205Y-102259744D01*
X162635000Y-102211546D01*
X162635000Y-98788454D01*
X162667205Y-98740256D01*
X162745226Y-98551898D01*
X162785000Y-98351939D01*
X162785000Y-98148061D01*
X162745226Y-97948102D01*
X162667205Y-97759744D01*
X162635000Y-97711546D01*
X162635000Y-94288454D01*
X162667205Y-94240256D01*
X162745226Y-94051898D01*
X162785000Y-93851939D01*
X162785000Y-93648061D01*
X162745226Y-93448102D01*
X162667205Y-93259744D01*
X162635000Y-93211546D01*
X162635000Y-89788454D01*
X162667205Y-89740256D01*
X162745226Y-89551898D01*
X162785000Y-89351939D01*
X162785000Y-89148061D01*
X162745226Y-88948102D01*
X162667205Y-88759744D01*
X162553937Y-88590226D01*
X162409774Y-88446063D01*
X162240256Y-88332795D01*
X162051898Y-88254774D01*
X161851939Y-88215000D01*
X161648061Y-88215000D01*
X161448102Y-88254774D01*
X161259744Y-88332795D01*
X161090226Y-88446063D01*
X160946063Y-88590226D01*
X160832795Y-88759744D01*
X160754774Y-88948102D01*
X160715000Y-89148061D01*
X147972863Y-89148061D01*
X146775001Y-87950200D01*
X146818889Y-87963513D01*
X147037050Y-87985000D01*
X147182950Y-87985000D01*
X147401111Y-87963513D01*
X147681034Y-87878599D01*
X147939014Y-87740706D01*
X148165134Y-87555134D01*
X148350706Y-87329014D01*
X148380000Y-87274209D01*
X148409294Y-87329014D01*
X148594866Y-87555134D01*
X148820986Y-87740706D01*
X149078966Y-87878599D01*
X149358889Y-87963513D01*
X149577050Y-87985000D01*
X149722950Y-87985000D01*
X149941111Y-87963513D01*
X150221034Y-87878599D01*
X150479014Y-87740706D01*
X150705134Y-87555134D01*
X150890706Y-87329014D01*
X150920000Y-87274209D01*
X150949294Y-87329014D01*
X151134866Y-87555134D01*
X151360986Y-87740706D01*
X151618966Y-87878599D01*
X151898889Y-87963513D01*
X152117050Y-87985000D01*
X152262950Y-87985000D01*
X152481111Y-87963513D01*
X152761034Y-87878599D01*
X153019014Y-87740706D01*
X153245134Y-87555134D01*
X153430706Y-87329014D01*
X153460000Y-87274209D01*
X153489294Y-87329014D01*
X153674866Y-87555134D01*
X153900986Y-87740706D01*
X154158966Y-87878599D01*
X154438889Y-87963513D01*
X154657050Y-87985000D01*
X154802950Y-87985000D01*
X155021111Y-87963513D01*
X155301034Y-87878599D01*
X155559014Y-87740706D01*
X155785134Y-87555134D01*
X155809607Y-87525313D01*
X155830498Y-87594180D01*
X155889463Y-87704494D01*
X155968815Y-87801185D01*
X156065506Y-87880537D01*
X156175820Y-87939502D01*
X156295518Y-87975812D01*
X156420000Y-87988072D01*
X158120000Y-87988072D01*
X158244482Y-87975812D01*
X158364180Y-87939502D01*
X158474494Y-87880537D01*
X158571185Y-87801185D01*
X158650537Y-87704494D01*
X158709502Y-87594180D01*
X158745812Y-87474482D01*
X158758072Y-87350000D01*
X158758072Y-85650000D01*
X158745812Y-85525518D01*
X158709502Y-85405820D01*
X158650537Y-85295506D01*
X158571185Y-85198815D01*
X158523889Y-85160000D01*
X177317721Y-85160000D01*
X177687351Y-85196243D01*
X177687351Y-85196243D01*
G37*
X177687351Y-85196243D02*
X177800928Y-85230534D01*
X179020070Y-86449676D01*
X179051362Y-86550765D01*
X179090001Y-86918391D01*
X179090000Y-107067720D01*
X179053757Y-107437353D01*
X179019467Y-107550927D01*
X177800324Y-108770070D01*
X177699236Y-108801362D01*
X177331618Y-108840000D01*
X157913248Y-108840000D01*
X158099014Y-108740706D01*
X158325134Y-108555134D01*
X158510706Y-108329014D01*
X158648599Y-108071034D01*
X158733513Y-107791111D01*
X158762185Y-107500000D01*
X158733513Y-107208889D01*
X158648599Y-106928966D01*
X158510706Y-106670986D01*
X158325134Y-106444866D01*
X158099014Y-106259294D01*
X157841034Y-106121401D01*
X157561111Y-106036487D01*
X157342950Y-106015000D01*
X157197050Y-106015000D01*
X156978889Y-106036487D01*
X156698966Y-106121401D01*
X156440986Y-106259294D01*
X156214866Y-106444866D01*
X156029294Y-106670986D01*
X156000000Y-106725791D01*
X155970706Y-106670986D01*
X155785134Y-106444866D01*
X155559014Y-106259294D01*
X155301034Y-106121401D01*
X155021111Y-106036487D01*
X154802950Y-106015000D01*
X154657050Y-106015000D01*
X154438889Y-106036487D01*
X154158966Y-106121401D01*
X153900986Y-106259294D01*
X153674866Y-106444866D01*
X153489294Y-106670986D01*
X153460000Y-106725791D01*
X153430706Y-106670986D01*
X153245134Y-106444866D01*
X153019014Y-106259294D01*
X152761034Y-106121401D01*
X152481111Y-106036487D01*
X152262950Y-106015000D01*
X152117050Y-106015000D01*
X151898889Y-106036487D01*
X151618966Y-106121401D01*
X151360986Y-106259294D01*
X151134866Y-106444866D01*
X150949294Y-106670986D01*
X150914799Y-106735523D01*
X150845178Y-106618645D01*
X150650269Y-106402412D01*
X150416920Y-106228359D01*
X150154099Y-106103175D01*
X150006890Y-106058524D01*
X149777000Y-106179845D01*
X149777000Y-107373000D01*
X149797000Y-107373000D01*
X149797000Y-107627000D01*
X149777000Y-107627000D01*
X149777000Y-107647000D01*
X149523000Y-107647000D01*
X149523000Y-107627000D01*
X149503000Y-107627000D01*
X149503000Y-107373000D01*
X149523000Y-107373000D01*
X149523000Y-106179845D01*
X149293110Y-106058524D01*
X149145901Y-106103175D01*
X148883080Y-106228359D01*
X148649731Y-106402412D01*
X148454822Y-106618645D01*
X148385201Y-106735523D01*
X148350706Y-106670986D01*
X148165134Y-106444866D01*
X147939014Y-106259294D01*
X147681034Y-106121401D01*
X147401111Y-106036487D01*
X147182950Y-106015000D01*
X147037050Y-106015000D01*
X146818889Y-106036487D01*
X146538966Y-106121401D01*
X146280986Y-106259294D01*
X146054866Y-106444866D01*
X145869294Y-106670986D01*
X145840000Y-106725791D01*
X145810706Y-106670986D01*
X145625134Y-106444866D01*
X145399014Y-106259294D01*
X145141034Y-106121401D01*
X144861111Y-106036487D01*
X144642950Y-106015000D01*
X144497050Y-106015000D01*
X144278889Y-106036487D01*
X143998966Y-106121401D01*
X143740986Y-106259294D01*
X143514866Y-106444866D01*
X143329294Y-106670986D01*
X143300000Y-106725791D01*
X143270706Y-106670986D01*
X143085134Y-106444866D01*
X142859014Y-106259294D01*
X142601034Y-106121401D01*
X142321111Y-106036487D01*
X142102950Y-106015000D01*
X141957050Y-106015000D01*
X141738889Y-106036487D01*
X141458966Y-106121401D01*
X141200986Y-106259294D01*
X140974866Y-106444866D01*
X140789294Y-106670986D01*
X140760000Y-106725791D01*
X140730706Y-106670986D01*
X140545134Y-106444866D01*
X140319014Y-106259294D01*
X140061034Y-106121401D01*
X139781111Y-106036487D01*
X139562950Y-106015000D01*
X139417050Y-106015000D01*
X139198889Y-106036487D01*
X138918966Y-106121401D01*
X138660986Y-106259294D01*
X138434866Y-106444866D01*
X138249294Y-106670986D01*
X138220000Y-106725791D01*
X138190706Y-106670986D01*
X138005134Y-106444866D01*
X137779014Y-106259294D01*
X137521034Y-106121401D01*
X137241111Y-106036487D01*
X137022950Y-106015000D01*
X136877050Y-106015000D01*
X136658889Y-106036487D01*
X136378966Y-106121401D01*
X136120986Y-106259294D01*
X135894866Y-106444866D01*
X135709294Y-106670986D01*
X135680000Y-106725791D01*
X135650706Y-106670986D01*
X135465134Y-106444866D01*
X135239014Y-106259294D01*
X134981034Y-106121401D01*
X134701111Y-106036487D01*
X134482950Y-106015000D01*
X134337050Y-106015000D01*
X134118889Y-106036487D01*
X133838966Y-106121401D01*
X133580986Y-106259294D01*
X133354866Y-106444866D01*
X133169294Y-106670986D01*
X133140000Y-106725791D01*
X133110706Y-106670986D01*
X132925134Y-106444866D01*
X132699014Y-106259294D01*
X132441034Y-106121401D01*
X132161111Y-106036487D01*
X131942950Y-106015000D01*
X131797050Y-106015000D01*
X131578889Y-106036487D01*
X131298966Y-106121401D01*
X131040986Y-106259294D01*
X130814866Y-106444866D01*
X130629294Y-106670986D01*
X130600000Y-106725791D01*
X130570706Y-106670986D01*
X130385134Y-106444866D01*
X130159014Y-106259294D01*
X129901034Y-106121401D01*
X129621111Y-106036487D01*
X129402950Y-106015000D01*
X129349802Y-106015000D01*
X129354803Y-106009999D01*
X137962679Y-106009999D01*
X138000001Y-106013675D01*
X138037323Y-106009999D01*
X138037334Y-106009999D01*
X138148987Y-105999002D01*
X138292248Y-105955545D01*
X138424277Y-105884973D01*
X138540002Y-105790000D01*
X138563805Y-105760997D01*
X139039802Y-105285000D01*
X139101939Y-105285000D01*
X139301898Y-105245226D01*
X139490256Y-105167205D01*
X139659774Y-105053937D01*
X139803937Y-104909774D01*
X139917205Y-104740256D01*
X139995226Y-104551898D01*
X140035000Y-104351939D01*
X140035000Y-104148061D01*
X139995226Y-103948102D01*
X139917205Y-103759744D01*
X139803937Y-103590226D01*
X139659774Y-103446063D01*
X139490256Y-103332795D01*
X139301898Y-103254774D01*
X139101939Y-103215000D01*
X138984999Y-103215000D01*
X138984999Y-101339802D01*
X139039801Y-101285000D01*
X139101939Y-101285000D01*
X139301898Y-101245226D01*
X139490256Y-101167205D01*
X139659774Y-101053937D01*
X139803937Y-100909774D01*
X139917205Y-100740256D01*
X139995226Y-100551898D01*
X140035000Y-100351939D01*
X140035000Y-100234999D01*
X145057200Y-100234999D01*
X146990001Y-102167802D01*
X146990000Y-103712677D01*
X146986324Y-103750000D01*
X146990000Y-103787322D01*
X146990000Y-103787332D01*
X147000997Y-103898985D01*
X147039825Y-104026985D01*
X147044454Y-104042246D01*
X147115026Y-104174276D01*
X147154871Y-104222826D01*
X147209999Y-104290001D01*
X147239003Y-104313804D01*
X147686196Y-104760997D01*
X147709999Y-104790001D01*
X147825724Y-104884974D01*
X147957753Y-104955546D01*
X148006675Y-104970386D01*
X148090226Y-105053937D01*
X148259744Y-105167205D01*
X148448102Y-105245226D01*
X148648061Y-105285000D01*
X148851939Y-105285000D01*
X149051898Y-105245226D01*
X149240256Y-105167205D01*
X149409774Y-105053937D01*
X149553937Y-104909774D01*
X149667205Y-104740256D01*
X149745226Y-104551898D01*
X149785000Y-104351939D01*
X149785000Y-104148061D01*
X149745226Y-103948102D01*
X149667205Y-103759744D01*
X149553937Y-103590226D01*
X149409774Y-103446063D01*
X149240256Y-103332795D01*
X149051898Y-103254774D01*
X148851939Y-103215000D01*
X148648061Y-103215000D01*
X148510000Y-103242462D01*
X148510000Y-101890320D01*
X148513676Y-101852997D01*
X148510000Y-101815674D01*
X148510000Y-101815665D01*
X148499003Y-101704012D01*
X148455546Y-101560751D01*
X148384974Y-101428722D01*
X148350188Y-101386335D01*
X148313799Y-101341994D01*
X148313795Y-101341990D01*
X148290001Y-101312997D01*
X148261008Y-101289203D01*
X146706793Y-99734989D01*
X147660188Y-99734989D01*
X147789490Y-99864291D01*
X147754774Y-99948102D01*
X147715000Y-100148061D01*
X147715000Y-100351939D01*
X147754774Y-100551898D01*
X147832795Y-100740256D01*
X147946063Y-100909774D01*
X148090226Y-101053937D01*
X148259744Y-101167205D01*
X148448102Y-101245226D01*
X148648061Y-101285000D01*
X148851939Y-101285000D01*
X149051898Y-101245226D01*
X149240256Y-101167205D01*
X149409774Y-101053937D01*
X149553937Y-100909774D01*
X149667205Y-100740256D01*
X149745226Y-100551898D01*
X149785000Y-100351939D01*
X149785000Y-100148061D01*
X149745226Y-99948102D01*
X149667205Y-99759744D01*
X149553937Y-99590226D01*
X149470386Y-99506675D01*
X149455546Y-99457753D01*
X149384974Y-99325723D01*
X149313799Y-99238997D01*
X149290001Y-99209999D01*
X149261002Y-99186201D01*
X148538792Y-98463991D01*
X148514990Y-98434988D01*
X148399265Y-98340015D01*
X148267236Y-98269443D01*
X148123975Y-98225986D01*
X148012322Y-98214989D01*
X148012311Y-98214989D01*
X147974989Y-98211313D01*
X147937667Y-98214989D01*
X138458214Y-98214989D01*
X138420889Y-98211313D01*
X138383564Y-98214989D01*
X138383556Y-98214989D01*
X138271903Y-98225986D01*
X138128642Y-98269443D01*
X137996613Y-98340015D01*
X137880888Y-98434988D01*
X137857090Y-98463987D01*
X137186941Y-99134136D01*
X137186936Y-99134140D01*
X136713977Y-99607100D01*
X136684979Y-99630898D01*
X136661181Y-99659896D01*
X136661180Y-99659897D01*
X136590005Y-99746623D01*
X136519433Y-99878653D01*
X136498367Y-99948102D01*
X136492578Y-99967186D01*
X136281496Y-99879754D01*
X135955958Y-99815000D01*
X135624042Y-99815000D01*
X135298504Y-99879754D01*
X134991853Y-100006772D01*
X134838042Y-100109546D01*
X134830537Y-100095506D01*
X134751185Y-99998815D01*
X134654494Y-99919463D01*
X134544180Y-99860498D01*
X134424482Y-99824188D01*
X134300000Y-99811928D01*
X132200000Y-99811928D01*
X132075518Y-99824188D01*
X131955820Y-99860498D01*
X131845506Y-99919463D01*
X131748815Y-99998815D01*
X131669463Y-100095506D01*
X131610498Y-100205820D01*
X131574188Y-100325518D01*
X131561928Y-100450000D01*
X131561928Y-102550000D01*
X131574188Y-102674482D01*
X131610498Y-102794180D01*
X131669463Y-102904494D01*
X131739610Y-102989969D01*
X129343024Y-102989969D01*
X129614125Y-102808825D01*
X129848825Y-102574125D01*
X130033228Y-102298147D01*
X130160246Y-101991496D01*
X130225000Y-101665958D01*
X130225000Y-101334042D01*
X130160246Y-101008504D01*
X130033228Y-100701853D01*
X129848825Y-100425875D01*
X129614125Y-100191175D01*
X129338147Y-100006772D01*
X129031496Y-99879754D01*
X128705958Y-99815000D01*
X128374042Y-99815000D01*
X128048504Y-99879754D01*
X127741853Y-100006772D01*
X127588042Y-100109546D01*
X127580537Y-100095506D01*
X127501185Y-99998815D01*
X127404494Y-99919463D01*
X127294180Y-99860498D01*
X127174482Y-99824188D01*
X127050000Y-99811928D01*
X124950000Y-99811928D01*
X124825518Y-99824188D01*
X124705820Y-99860498D01*
X124660011Y-99884984D01*
X124660011Y-93582961D01*
X124885875Y-93808825D01*
X125161853Y-93993228D01*
X125468504Y-94120246D01*
X125794042Y-94185000D01*
X126125958Y-94185000D01*
X126451496Y-94120246D01*
X126758147Y-93993228D01*
X126911958Y-93890454D01*
X126919463Y-93904494D01*
X126998815Y-94001185D01*
X127095506Y-94080537D01*
X127205820Y-94139502D01*
X127325518Y-94175812D01*
X127450000Y-94188072D01*
X129550000Y-94188072D01*
X129674482Y-94175812D01*
X129794180Y-94139502D01*
X129904494Y-94080537D01*
X130001185Y-94001185D01*
X130080537Y-93904494D01*
X130139502Y-93794180D01*
X130175812Y-93674482D01*
X130188072Y-93550000D01*
X130188072Y-91450000D01*
X130175812Y-91325518D01*
X130139502Y-91205820D01*
X130080537Y-91095506D01*
X130001185Y-90998815D01*
X129904494Y-90919463D01*
X129794180Y-90860498D01*
X129674482Y-90824188D01*
X129550000Y-90811928D01*
X127450000Y-90811928D01*
X127325518Y-90824188D01*
X127205820Y-90860498D01*
X127095506Y-90919463D01*
X126998815Y-90998815D01*
X126919463Y-91095506D01*
X126911958Y-91109546D01*
X126758147Y-91006772D01*
X126451496Y-90879754D01*
X126125958Y-90815000D01*
X125794042Y-90815000D01*
X125468504Y-90879754D01*
X125161853Y-91006772D01*
X124885875Y-91191175D01*
X124660011Y-91417039D01*
X124660011Y-89704790D01*
X126424005Y-87940797D01*
X126498889Y-87963513D01*
X126717050Y-87985000D01*
X126862950Y-87985000D01*
X127081111Y-87963513D01*
X127361034Y-87878599D01*
X127619014Y-87740706D01*
X127845134Y-87555134D01*
X128030706Y-87329014D01*
X128060000Y-87274209D01*
X128089294Y-87329014D01*
X128274866Y-87555134D01*
X128500986Y-87740706D01*
X128758966Y-87878599D01*
X129038889Y-87963513D01*
X129257050Y-87985000D01*
X129402950Y-87985000D01*
X129621111Y-87963513D01*
X129695996Y-87940797D01*
X131491231Y-89736033D01*
X131515030Y-89765032D01*
X131630755Y-89860005D01*
X131762784Y-89930577D01*
X131906045Y-89974034D01*
X132017698Y-89985031D01*
X132017706Y-89985031D01*
X132055031Y-89988707D01*
X132092356Y-89985031D01*
X136410230Y-89985031D01*
X136740001Y-90314803D01*
X136740001Y-90811928D01*
X134740000Y-90811928D01*
X134615518Y-90824188D01*
X134495820Y-90860498D01*
X134385506Y-90919463D01*
X134288815Y-90998815D01*
X134209463Y-91095506D01*
X134201958Y-91109546D01*
X134048147Y-91006772D01*
X133741496Y-90879754D01*
X133415958Y-90815000D01*
X133084042Y-90815000D01*
X132758504Y-90879754D01*
X132451853Y-91006772D01*
X132175875Y-91191175D01*
X131941175Y-91425875D01*
X131756772Y-91701853D01*
X131629754Y-92008504D01*
X131565000Y-92334042D01*
X131565000Y-92665958D01*
X131629754Y-92991496D01*
X131756772Y-93298147D01*
X131941175Y-93574125D01*
X132175875Y-93808825D01*
X132451853Y-93993228D01*
X132758504Y-94120246D01*
X133084042Y-94185000D01*
X133415958Y-94185000D01*
X133741496Y-94120246D01*
X134048147Y-93993228D01*
X134201958Y-93890454D01*
X134209463Y-93904494D01*
X134288815Y-94001185D01*
X134385506Y-94080537D01*
X134495820Y-94139502D01*
X134615518Y-94175812D01*
X134740000Y-94188072D01*
X136740000Y-94188072D01*
X136740000Y-94212677D01*
X136736324Y-94250000D01*
X136740000Y-94287322D01*
X136740000Y-94287332D01*
X136750997Y-94398985D01*
X136778427Y-94489411D01*
X136794454Y-94542246D01*
X136865026Y-94674276D01*
X136892501Y-94707754D01*
X136959999Y-94790001D01*
X136989003Y-94813804D01*
X137965000Y-95789802D01*
X137965000Y-95851939D01*
X138004774Y-96051898D01*
X138082795Y-96240256D01*
X138196063Y-96409774D01*
X138340226Y-96553937D01*
X138509744Y-96667205D01*
X138698102Y-96745226D01*
X138898061Y-96785000D01*
X139101939Y-96785000D01*
X139301898Y-96745226D01*
X139490256Y-96667205D01*
X139659774Y-96553937D01*
X139803937Y-96409774D01*
X139917205Y-96240256D01*
X139995226Y-96051898D01*
X140035000Y-95851939D01*
X140035000Y-95648061D01*
X139995226Y-95448102D01*
X139917205Y-95259744D01*
X139803937Y-95090226D01*
X139659774Y-94946063D01*
X139490256Y-94832795D01*
X139301898Y-94754774D01*
X139101939Y-94715000D01*
X139039802Y-94715000D01*
X138260000Y-93935199D01*
X138260000Y-92473711D01*
X138340226Y-92553937D01*
X138509744Y-92667205D01*
X138698102Y-92745226D01*
X138898061Y-92785000D01*
X139101939Y-92785000D01*
X139301898Y-92745226D01*
X139490256Y-92667205D01*
X139659774Y-92553937D01*
X139803937Y-92409774D01*
X139917205Y-92240256D01*
X139995226Y-92051898D01*
X140035000Y-91851939D01*
X140035000Y-91648061D01*
X139995226Y-91448102D01*
X139917205Y-91259744D01*
X139803937Y-91090226D01*
X139659774Y-90946063D01*
X139490256Y-90832795D01*
X139301898Y-90754774D01*
X139101939Y-90715000D01*
X139039802Y-90715000D01*
X138760000Y-90435199D01*
X138760000Y-89537323D01*
X138763676Y-89500000D01*
X138760000Y-89462677D01*
X138760000Y-89462667D01*
X138749003Y-89351014D01*
X138705546Y-89207753D01*
X138634974Y-89075724D01*
X138560528Y-88985011D01*
X144160210Y-88985011D01*
X147214999Y-92039802D01*
X147214999Y-92084679D01*
X147211323Y-92122001D01*
X147214999Y-92159323D01*
X147214999Y-92159333D01*
X147225996Y-92270986D01*
X147240001Y-92317155D01*
X147240000Y-94962677D01*
X147236324Y-95000000D01*
X147240000Y-95037322D01*
X147240000Y-95037332D01*
X147250997Y-95148985D01*
X147284595Y-95259744D01*
X147294454Y-95292246D01*
X147365026Y-95424276D01*
X147384580Y-95448102D01*
X147459999Y-95540001D01*
X147489002Y-95563803D01*
X147715000Y-95789801D01*
X147715000Y-95851939D01*
X147754774Y-96051898D01*
X147832795Y-96240256D01*
X147946063Y-96409774D01*
X148090226Y-96553937D01*
X148259744Y-96667205D01*
X148448102Y-96745226D01*
X148648061Y-96785000D01*
X148851939Y-96785000D01*
X149051898Y-96745226D01*
X149240256Y-96667205D01*
X149409774Y-96553937D01*
X149553937Y-96409774D01*
X149667205Y-96240256D01*
X149745226Y-96051898D01*
X149785000Y-95851939D01*
X149785000Y-95648061D01*
X149745226Y-95448102D01*
X149667205Y-95259744D01*
X149553937Y-95090226D01*
X149409774Y-94946063D01*
X149240256Y-94832795D01*
X149051898Y-94754774D01*
X148851939Y-94715000D01*
X148789801Y-94715000D01*
X148760000Y-94685199D01*
X148760000Y-92785000D01*
X148851939Y-92785000D01*
X149051898Y-92745226D01*
X149240256Y-92667205D01*
X149409774Y-92553937D01*
X149553937Y-92409774D01*
X149667205Y-92240256D01*
X149745226Y-92051898D01*
X149785000Y-91851939D01*
X149785000Y-91648061D01*
X149745226Y-91448102D01*
X149667205Y-91259744D01*
X149553937Y-91090226D01*
X149510000Y-91046289D01*
X149510000Y-91037322D01*
X149513676Y-90999999D01*
X149510000Y-90962677D01*
X149510000Y-90962667D01*
X149499003Y-90851014D01*
X149455546Y-90707753D01*
X149454366Y-90705546D01*
X149384974Y-90575723D01*
X149313799Y-90488997D01*
X149290001Y-90459999D01*
X149261003Y-90436201D01*
X147972863Y-89148061D01*
X160715000Y-89148061D01*
X160715000Y-89351939D01*
X160754774Y-89551898D01*
X160832795Y-89740256D01*
X160865001Y-89788456D01*
X160865000Y-93211545D01*
X160832795Y-93259744D01*
X160754774Y-93448102D01*
X160715000Y-93648061D01*
X160715000Y-93851939D01*
X160754774Y-94051898D01*
X160832795Y-94240256D01*
X160865000Y-94288455D01*
X160865001Y-97711544D01*
X160832795Y-97759744D01*
X160754774Y-97948102D01*
X160715000Y-98148061D01*
X160715000Y-98351939D01*
X160754774Y-98551898D01*
X160832795Y-98740256D01*
X160865001Y-98788456D01*
X160865000Y-102211545D01*
X160832795Y-102259744D01*
X160754774Y-102448102D01*
X160715000Y-102648061D01*
X160715000Y-102851939D01*
X160754774Y-103051898D01*
X160832795Y-103240256D01*
X160946063Y-103409774D01*
X161090226Y-103553937D01*
X161259744Y-103667205D01*
X161448102Y-103745226D01*
X161648061Y-103785000D01*
X161851939Y-103785000D01*
X162051898Y-103745226D01*
X162240256Y-103667205D01*
X162409774Y-103553937D01*
X162553937Y-103409774D01*
X162667205Y-103240256D01*
X162745226Y-103051898D01*
X162785000Y-102851939D01*
X162785000Y-102648061D01*
X162745226Y-102448102D01*
X162667205Y-102259744D01*
X162635000Y-102211546D01*
X162635000Y-98788454D01*
X162667205Y-98740256D01*
X162745226Y-98551898D01*
X162785000Y-98351939D01*
X162785000Y-98148061D01*
X162745226Y-97948102D01*
X162667205Y-97759744D01*
X162635000Y-97711546D01*
X162635000Y-94288454D01*
X162667205Y-94240256D01*
X162745226Y-94051898D01*
X162785000Y-93851939D01*
X162785000Y-93648061D01*
X162745226Y-93448102D01*
X162667205Y-93259744D01*
X162635000Y-93211546D01*
X162635000Y-89788454D01*
X162667205Y-89740256D01*
X162745226Y-89551898D01*
X162785000Y-89351939D01*
X162785000Y-89148061D01*
X162745226Y-88948102D01*
X162667205Y-88759744D01*
X162553937Y-88590226D01*
X162409774Y-88446063D01*
X162240256Y-88332795D01*
X162051898Y-88254774D01*
X161851939Y-88215000D01*
X161648061Y-88215000D01*
X161448102Y-88254774D01*
X161259744Y-88332795D01*
X161090226Y-88446063D01*
X160946063Y-88590226D01*
X160832795Y-88759744D01*
X160754774Y-88948102D01*
X160715000Y-89148061D01*
X147972863Y-89148061D01*
X146775001Y-87950200D01*
X146818889Y-87963513D01*
X147037050Y-87985000D01*
X147182950Y-87985000D01*
X147401111Y-87963513D01*
X147681034Y-87878599D01*
X147939014Y-87740706D01*
X148165134Y-87555134D01*
X148350706Y-87329014D01*
X148380000Y-87274209D01*
X148409294Y-87329014D01*
X148594866Y-87555134D01*
X148820986Y-87740706D01*
X149078966Y-87878599D01*
X149358889Y-87963513D01*
X149577050Y-87985000D01*
X149722950Y-87985000D01*
X149941111Y-87963513D01*
X150221034Y-87878599D01*
X150479014Y-87740706D01*
X150705134Y-87555134D01*
X150890706Y-87329014D01*
X150920000Y-87274209D01*
X150949294Y-87329014D01*
X151134866Y-87555134D01*
X151360986Y-87740706D01*
X151618966Y-87878599D01*
X151898889Y-87963513D01*
X152117050Y-87985000D01*
X152262950Y-87985000D01*
X152481111Y-87963513D01*
X152761034Y-87878599D01*
X153019014Y-87740706D01*
X153245134Y-87555134D01*
X153430706Y-87329014D01*
X153460000Y-87274209D01*
X153489294Y-87329014D01*
X153674866Y-87555134D01*
X153900986Y-87740706D01*
X154158966Y-87878599D01*
X154438889Y-87963513D01*
X154657050Y-87985000D01*
X154802950Y-87985000D01*
X155021111Y-87963513D01*
X155301034Y-87878599D01*
X155559014Y-87740706D01*
X155785134Y-87555134D01*
X155809607Y-87525313D01*
X155830498Y-87594180D01*
X155889463Y-87704494D01*
X155968815Y-87801185D01*
X156065506Y-87880537D01*
X156175820Y-87939502D01*
X156295518Y-87975812D01*
X156420000Y-87988072D01*
X158120000Y-87988072D01*
X158244482Y-87975812D01*
X158364180Y-87939502D01*
X158474494Y-87880537D01*
X158571185Y-87801185D01*
X158650537Y-87704494D01*
X158709502Y-87594180D01*
X158745812Y-87474482D01*
X158758072Y-87350000D01*
X158758072Y-85650000D01*
X158745812Y-85525518D01*
X158709502Y-85405820D01*
X158650537Y-85295506D01*
X158571185Y-85198815D01*
X158523889Y-85160000D01*
X177317721Y-85160000D01*
X177687351Y-85196243D01*
G36*
X123420986Y-85259294D02*
G01*
X123194866Y-85444866D01*
X123009294Y-85670986D01*
X122871401Y-85928966D01*
X122786487Y-86208889D01*
X122757815Y-86500000D01*
X122786487Y-86791111D01*
X122810510Y-86870303D01*
X122765027Y-86925723D01*
X122694455Y-87057753D01*
X122681772Y-87099565D01*
X122655857Y-87185000D01*
X122650999Y-87201014D01*
X122636325Y-87349999D01*
X122640002Y-87387332D01*
X122640001Y-102344801D01*
X122636325Y-102382123D01*
X122640001Y-102419445D01*
X122640001Y-102419455D01*
X122650998Y-102531108D01*
X122675644Y-102612356D01*
X122694455Y-102674369D01*
X122765027Y-102806399D01*
X122802401Y-102851939D01*
X122860000Y-102922124D01*
X122889004Y-102945927D01*
X124704058Y-104760982D01*
X124727856Y-104789980D01*
X124759362Y-104815836D01*
X123739003Y-105836196D01*
X123709999Y-105859999D01*
X123654871Y-105927174D01*
X123615026Y-105975724D01*
X123595674Y-106011928D01*
X123400000Y-106011928D01*
X123275518Y-106024188D01*
X123155820Y-106060498D01*
X123045506Y-106119463D01*
X122948815Y-106198815D01*
X122869463Y-106295506D01*
X122810498Y-106405820D01*
X122774188Y-106525518D01*
X122761928Y-106650000D01*
X122761928Y-108350000D01*
X122774188Y-108474482D01*
X122810498Y-108594180D01*
X122869463Y-108704494D01*
X122948815Y-108801185D01*
X122996111Y-108840000D01*
X120682280Y-108840000D01*
X120312647Y-108803757D01*
X120199073Y-108769467D01*
X118979930Y-107550324D01*
X118948638Y-107449236D01*
X118910000Y-107081618D01*
X118910000Y-86932279D01*
X118946243Y-86562649D01*
X118980534Y-86449072D01*
X120199676Y-85229930D01*
X120300765Y-85198638D01*
X120668382Y-85160000D01*
X123606752Y-85160000D01*
X123420986Y-85259294D01*
X123420986Y-85259294D01*
G37*
X123420986Y-85259294D02*
X123194866Y-85444866D01*
X123009294Y-85670986D01*
X122871401Y-85928966D01*
X122786487Y-86208889D01*
X122757815Y-86500000D01*
X122786487Y-86791111D01*
X122810510Y-86870303D01*
X122765027Y-86925723D01*
X122694455Y-87057753D01*
X122681772Y-87099565D01*
X122655857Y-87185000D01*
X122650999Y-87201014D01*
X122636325Y-87349999D01*
X122640002Y-87387332D01*
X122640001Y-102344801D01*
X122636325Y-102382123D01*
X122640001Y-102419445D01*
X122640001Y-102419455D01*
X122650998Y-102531108D01*
X122675644Y-102612356D01*
X122694455Y-102674369D01*
X122765027Y-102806399D01*
X122802401Y-102851939D01*
X122860000Y-102922124D01*
X122889004Y-102945927D01*
X124704058Y-104760982D01*
X124727856Y-104789980D01*
X124759362Y-104815836D01*
X123739003Y-105836196D01*
X123709999Y-105859999D01*
X123654871Y-105927174D01*
X123615026Y-105975724D01*
X123595674Y-106011928D01*
X123400000Y-106011928D01*
X123275518Y-106024188D01*
X123155820Y-106060498D01*
X123045506Y-106119463D01*
X122948815Y-106198815D01*
X122869463Y-106295506D01*
X122810498Y-106405820D01*
X122774188Y-106525518D01*
X122761928Y-106650000D01*
X122761928Y-108350000D01*
X122774188Y-108474482D01*
X122810498Y-108594180D01*
X122869463Y-108704494D01*
X122948815Y-108801185D01*
X122996111Y-108840000D01*
X120682280Y-108840000D01*
X120312647Y-108803757D01*
X120199073Y-108769467D01*
X118979930Y-107550324D01*
X118948638Y-107449236D01*
X118910000Y-107081618D01*
X118910000Y-86932279D01*
X118946243Y-86562649D01*
X118980534Y-86449072D01*
X120199676Y-85229930D01*
X120300765Y-85198638D01*
X120668382Y-85160000D01*
X123606752Y-85160000D01*
X123420986Y-85259294D01*
G36*
X148454822Y-108381355D02*
G01*
X148649731Y-108597588D01*
X148883080Y-108771641D01*
X149026598Y-108840000D01*
X147753248Y-108840000D01*
X147939014Y-108740706D01*
X148165134Y-108555134D01*
X148350706Y-108329014D01*
X148385201Y-108264477D01*
X148454822Y-108381355D01*
X148454822Y-108381355D01*
G37*
X148454822Y-108381355D02*
X148649731Y-108597588D01*
X148883080Y-108771641D01*
X149026598Y-108840000D01*
X147753248Y-108840000D01*
X147939014Y-108740706D01*
X148165134Y-108555134D01*
X148350706Y-108329014D01*
X148385201Y-108264477D01*
X148454822Y-108381355D01*
M02*
