M48
; DRILL file {KiCad 5.1.4+dfsg1-1} date Sun Dec  1 21:22:29 2019
; FORMAT={-:-/ absolute / inch / decimal}
; #@! TF.CreationDate,2019-12-01T21:22:29+08:00
; #@! TF.GenerationSoftware,Kicad,Pcbnew,5.1.4+dfsg1-1
; #@! TF.FileFunction,Plated,1,2,PTH
FMAT,2
INCH
T1C0.0157
T2C0.0394
T3C0.0433
%
G90
G05
T1
X5.4724Y-3.5335
X5.4724Y-3.6122
X5.4724Y-3.6909
X5.4724Y-3.7697
X5.4724Y-3.8661
X5.4724Y-3.9469
X5.4724Y-4.0256
X5.4724Y-4.1043
X5.6299Y-3.6811
X5.6299Y-4.0157
X5.7283Y-3.6821
X5.7283Y-4.0157
X5.8563Y-3.5335
X5.8563Y-3.6122
X5.8563Y-3.7697
X5.8563Y-3.8681
X5.8563Y-3.9469
X5.8563Y-4.0256
X5.8563Y-4.1043
X5.8573Y-3.6909
X6.0039Y-3.6821
X6.0138Y-4.0157
X6.1024Y-3.6821
X6.1122Y-4.0157
X6.3681Y-3.5138
X6.3681Y-3.6909
X6.3681Y-3.8681
X6.3681Y-4.0453
T2
X4.8917Y-3.4055
X4.9917Y-3.4055
X5.0917Y-3.4055
X5.1917Y-3.4055
X5.2917Y-3.4055
X5.3917Y-3.4055
X5.4917Y-3.4055
X5.5917Y-3.4055
X5.6917Y-3.4055
X5.7917Y-3.4055
X5.8917Y-3.4055
X5.9917Y-3.4055
X6.0917Y-3.4055
X6.1917Y-3.4055
X4.8917Y-4.2323
X4.9917Y-4.2323
X5.0917Y-4.2323
X5.1917Y-4.2323
X5.2917Y-4.2323
X5.3917Y-4.2323
X5.4917Y-4.2323
X5.5917Y-4.2323
X5.6917Y-4.2323
X5.7917Y-4.2323
X5.8917Y-4.2323
X5.9917Y-4.2323
X6.0917Y-4.2323
X6.1917Y-4.2323
T3
X4.9606Y-3.9961
X5.0606Y-3.9961
X5.2461Y-3.9961
X5.3461Y-3.9961
X5.2461Y-3.6417
X5.3461Y-3.6417
X4.9591Y-3.6417
X5.0591Y-3.6417
T0
M30
